<?xml version="1.0" encoding="UTF-8"?>
<svg version="1.1" xmlns="http://www.w3.org/2000/svg" width="512" height="512">
<path d="M0 0 C1.38745926 0.00131424 1.38745926 0.00131424 2.802948 0.00265503 C17.72550837 0.04916682 32.0581445 0.8987904 46.625 4.375 C47.65286621 4.61637695 48.68073242 4.85775391 49.73974609 5.10644531 C64.68891294 8.72262899 78.76453419 13.72546469 92.625 20.375 C93.85041504 20.96087891 93.85041504 20.96087891 95.10058594 21.55859375 C144.04408091 45.31946278 182.42373567 89.19349026 200.62524414 140.34790039 C208.40931505 163.39161799 212.05630339 186.48378389 212 210.75 C211.99912384 211.67497284 211.99824768 212.59994568 211.99734497 213.552948 C211.95083318 228.47550837 211.1012096 242.8081445 207.625 257.375 C207.38362305 258.40286621 207.14224609 259.43073242 206.89355469 260.48974609 C203.27737101 275.43891294 198.27453531 289.51453419 191.625 303.375 C191.23441406 304.19194336 190.84382813 305.00888672 190.44140625 305.85058594 C166.68053722 354.79408091 122.80650974 393.17373567 71.65209961 411.37524414 C48.60838201 419.15931505 25.51621611 422.80630339 1.25 422.75 C0.32502716 422.74912384 -0.59994568 422.74824768 -1.552948 422.74734497 C-16.47550837 422.70083318 -30.8081445 421.8512096 -45.375 418.375 C-46.40286621 418.13362305 -47.43073242 417.89224609 -48.48974609 417.64355469 C-63.43891294 414.02737101 -77.51453419 409.02453531 -91.375 402.375 C-92.19194336 401.98441406 -93.00888672 401.59382813 -93.85058594 401.19140625 C-142.79408091 377.43053722 -181.17373567 333.55650974 -199.37524414 282.40209961 C-207.15931505 259.35838201 -210.80630339 236.26621611 -210.75 212 C-210.74912384 211.07502716 -210.74824768 210.15005432 -210.74734497 209.197052 C-210.70083318 194.27449163 -209.8512096 179.9418555 -206.375 165.375 C-206.13362305 164.34713379 -205.89224609 163.31926758 -205.64355469 162.26025391 C-202.02737101 147.31108706 -197.02453531 133.23546581 -190.375 119.375 C-189.98441406 118.55805664 -189.59382813 117.74111328 -189.19140625 116.89941406 C-165.43053722 67.95591909 -121.55650974 29.57626433 -70.40209961 11.37475586 C-47.35838201 3.59068495 -24.26621611 -0.05630339 0 0 Z M-125.375 82.375 C-126.27476562 83.21160156 -127.17453125 84.04820312 -128.1015625 84.91015625 C-157.76877101 113.25217245 -177.65477135 156.13264292 -179.55200195 197.20703125 C-180.38042536 251.01824713 -166.37009401 298.00127413 -128.375 337.375 C-127.53839844 338.27476562 -126.70179688 339.17453125 -125.83984375 340.1015625 C-97.49782755 369.76877101 -54.61735708 389.65477135 -13.54296875 391.55200195 C40.26824713 392.38042536 87.25127413 378.37009401 126.625 340.375 C127.52476562 339.53839844 128.42453125 338.70179688 129.3515625 337.83984375 C159.01877101 309.49782755 178.90477135 266.61735708 180.80200195 225.54296875 C181.63042536 171.73175287 167.62009401 124.74872587 129.625 85.375 C128.37009766 84.02535156 128.37009766 84.02535156 127.08984375 82.6484375 C98.74782755 52.98122899 55.86735708 33.09522865 14.79296875 31.19799805 C-39.01824713 30.36957464 -86.00127413 44.37990599 -125.375 82.375 Z " fill="#FFFFFF" transform="translate(255.375,44.625)"/>
<path d="M0 0 C3.95027815 0.41236593 6.64962247 1.83246518 9.98046875 3.84375 C10.98883789 4.43119995 10.98883789 4.43119995 12.01757812 5.03051758 C14.45118553 6.45430611 16.87180214 7.89891068 19.29296875 9.34375 C21.36156849 10.56710093 23.43060681 11.78971046 25.5 13.01171875 C29.53337909 15.39651195 33.56396945 17.7858517 37.59132385 20.18080139 C44.43095928 24.24752409 51.29092266 28.27808955 58.16796875 32.28125 C60.11979348 33.41796564 62.07161636 34.55468445 64.0234375 35.69140625 C65.0242334 36.27422363 66.0250293 36.85704102 67.05615234 37.45751953 C72.5698024 40.67055772 78.08048663 43.88863579 83.5881958 47.11184692 C84.82269458 47.83397874 86.05750295 48.55558164 87.29266357 49.27658081 C93.73813281 53.03931295 100.16093098 56.83778092 106.53125 60.7265625 C107.58997314 61.37254395 108.64869629 62.01852539 109.73950195 62.68408203 C112.29296875 64.34375 112.29296875 64.34375 114.29296875 66.34375 C114.73046875 69.21875 114.73046875 69.21875 114.29296875 72.34375 C110.98307835 75.36574267 107.34586421 77.6110956 103.48046875 79.85546875 C102.92315063 80.18065994 102.36583252 80.50585114 101.79162598 80.84089661 C99.96087025 81.90805537 98.12692306 82.96959923 96.29296875 84.03125 C94.99389199 84.78733338 93.69506833 85.54385177 92.39648438 86.30078125 C89.70019516 87.8719654 87.00282975 89.44127766 84.3046875 91.00927734 C78.72044093 94.25638966 73.14956235 97.52623985 67.57855225 100.79598999 C64.58040007 102.55527146 61.58112532 104.31263738 58.58203125 106.0703125 C52.98454285 109.35128091 47.38830565 112.63437747 41.79304504 115.91914368 C38.70212856 117.73333546 35.61010158 119.54557565 32.51538086 121.35327148 C27.1455227 124.49084906 21.78490831 127.6404214 16.4609375 130.85546875 C15.58775879 131.37705566 14.71458008 131.89864258 13.81494141 132.43603516 C12.23660923 133.37952497 10.66407253 134.33281798 9.09912109 135.29833984 C5.04540725 137.70472774 2.1566495 139.09033587 -2.70703125 138.34375 C-5.31395339 135.73682786 -4.95821491 134.66100334 -4.96099854 131.02954102 C-4.96663818 129.90218536 -4.97227783 128.77482971 -4.97808838 127.61331177 C-4.97403992 126.37064545 -4.96999146 125.12797913 -4.96582031 123.84765625 C-4.96932495 122.54359833 -4.97282959 121.23954041 -4.97644043 119.89596558 C-4.98557769 116.31338175 -4.98201473 112.73091278 -4.97568226 109.14832687 C-4.97062915 105.40430129 -4.97531179 101.66028573 -4.97845459 97.91625977 C-4.98209625 91.62807443 -4.97728991 85.33993603 -4.96777344 79.05175781 C-4.95688848 71.77516068 -4.96041392 64.4986756 -4.97142625 57.22208118 C-4.98049344 50.98171178 -4.9817872 44.74137617 -4.97654891 38.50100231 C-4.97342607 34.7707606 -4.97302843 31.04057161 -4.97962189 27.31033325 C-4.98645586 23.15343557 -4.9769919 18.99673199 -4.96582031 14.83984375 C-4.96986877 13.59717743 -4.97391724 12.35451111 -4.97808838 11.07418823 C-4.96962891 9.38315475 -4.96962891 9.38315475 -4.96099854 7.65795898 C-4.96024448 6.67423813 -4.95949043 5.69051727 -4.95871353 4.67698669 C-4.57691062 1.13745838 -3.45809354 0.43912299 0 0 Z " fill="#FFFFFF" transform="translate(216.70703125,186.65625)"/>
</svg>
